<svg width="16" height="16" viewBox="0 0 16 16" fill="none" xmlns="http://www.w3.org/2000/svg">
<path d="M0.416667 10C0.305556 10 0.208333 9.95833 0.125 9.875C0.0416667 9.79167 0 9.69444 0 9.58333C0 9.47222 0.0416667 9.375 0.125 9.29167C0.208333 9.20833 0.305556 9.16667 0.416667 9.16667C0.527778 9.16667 0.625 9.20833 0.708333 9.29167C0.791667 9.375 0.833333 9.47222 0.833333 9.58333C0.833333 9.69444 0.791667 9.79167 0.708333 9.875C0.625 9.95833 0.527778 10 0.416667 10ZM0.416667 6.66667C0.305556 6.66667 0.208333 6.625 0.125 6.54167C0.0416667 6.45833 0 6.36111 0 6.25C0 6.13889 0.0416667 6.04167 0.125 5.95833C0.208333 5.875 0.305556 5.83333 0.416667 5.83333C0.527778 5.83333 0.625 5.875 0.708333 5.95833C0.791667 6.04167 0.833333 6.13889 0.833333 6.25C0.833333 6.36111 0.791667 6.45833 0.708333 6.54167C0.625 6.625 0.527778 6.66667 0.416667 6.66667ZM2.91667 13.75C2.68056 13.75 2.48264 13.6701 2.32292 13.5104C2.16319 13.3507 2.08333 13.1528 2.08333 12.9167C2.08333 12.6806 2.16319 12.4826 2.32292 12.3229C2.48264 12.1632 2.68056 12.0833 2.91667 12.0833C3.15278 12.0833 3.35069 12.1632 3.51042 12.3229C3.67014 12.4826 3.75 12.6806 3.75 12.9167C3.75 13.1528 3.67014 13.3507 3.51042 13.5104C3.35069 13.6701 3.15278 13.75 2.91667 13.75ZM2.91667 10.4167C2.68056 10.4167 2.48264 10.3368 2.32292 10.1771C2.16319 10.0174 2.08333 9.81944 2.08333 9.58333C2.08333 9.34722 2.16319 9.14931 2.32292 8.98958C2.48264 8.82986 2.68056 8.75 2.91667 8.75C3.15278 8.75 3.35069 8.82986 3.51042 8.98958C3.67014 9.14931 3.75 9.34722 3.75 9.58333C3.75 9.81944 3.67014 10.0174 3.51042 10.1771C3.35069 10.3368 3.15278 10.4167 2.91667 10.4167ZM2.91667 7.08333C2.68056 7.08333 2.48264 7.00347 2.32292 6.84375C2.16319 6.68403 2.08333 6.48611 2.08333 6.25C2.08333 6.01389 2.16319 5.81597 2.32292 5.65625C2.48264 5.49653 2.68056 5.41667 2.91667 5.41667C3.15278 5.41667 3.35069 5.49653 3.51042 5.65625C3.67014 5.81597 3.75 6.01389 3.75 6.25C3.75 6.48611 3.67014 6.68403 3.51042 6.84375C3.35069 7.00347 3.15278 7.08333 2.91667 7.08333ZM2.91667 3.75C2.68056 3.75 2.48264 3.67014 2.32292 3.51042C2.16319 3.35069 2.08333 3.15278 2.08333 2.91667C2.08333 2.68056 2.16319 2.48264 2.32292 2.32292C2.48264 2.16319 2.68056 2.08333 2.91667 2.08333C3.15278 2.08333 3.35069 2.16319 3.51042 2.32292C3.67014 2.48264 3.75 2.68056 3.75 2.91667C3.75 3.15278 3.67014 3.35069 3.51042 3.51042C3.35069 3.67014 3.15278 3.75 2.91667 3.75ZM6.25 10.8333C5.90278 10.8333 5.60764 10.7118 5.36458 10.4688C5.12153 10.2257 5 9.93056 5 9.58333C5 9.23611 5.12153 8.94097 5.36458 8.69792C5.60764 8.45486 5.90278 8.33333 6.25 8.33333C6.59722 8.33333 6.89236 8.45486 7.13542 8.69792C7.37847 8.94097 7.5 9.23611 7.5 9.58333C7.5 9.93056 7.37847 10.2257 7.13542 10.4688C6.89236 10.7118 6.59722 10.8333 6.25 10.8333ZM6.25 7.5C5.90278 7.5 5.60764 7.37847 5.36458 7.13542C5.12153 6.89236 5 6.59722 5 6.25C5 5.90278 5.12153 5.60764 5.36458 5.36458C5.60764 5.12153 5.90278 5 6.25 5C6.59722 5 6.89236 5.12153 7.13542 5.36458C7.37847 5.60764 7.5 5.90278 7.5 6.25C7.5 6.59722 7.37847 6.89236 7.13542 7.13542C6.89236 7.37847 6.59722 7.5 6.25 7.5ZM6.25 13.75C6.01389 13.75 5.81597 13.6701 5.65625 13.5104C5.49653 13.3507 5.41667 13.1528 5.41667 12.9167C5.41667 12.6806 5.49653 12.4826 5.65625 12.3229C5.81597 12.1632 6.01389 12.0833 6.25 12.0833C6.48611 12.0833 6.68403 12.1632 6.84375 12.3229C7.00347 12.4826 7.08333 12.6806 7.08333 12.9167C7.08333 13.1528 7.00347 13.3507 6.84375 13.5104C6.68403 13.6701 6.48611 13.75 6.25 13.75ZM6.25 3.75C6.01389 3.75 5.81597 3.67014 5.65625 3.51042C5.49653 3.35069 5.41667 3.15278 5.41667 2.91667C5.41667 2.68056 5.49653 2.48264 5.65625 2.32292C5.81597 2.16319 6.01389 2.08333 6.25 2.08333C6.48611 2.08333 6.68403 2.16319 6.84375 2.32292C7.00347 2.48264 7.08333 2.68056 7.08333 2.91667C7.08333 3.15278 7.00347 3.35069 6.84375 3.51042C6.68403 3.67014 6.48611 3.75 6.25 3.75ZM6.25 15.8333C6.13889 15.8333 6.04167 15.7917 5.95833 15.7083C5.875 15.625 5.83333 15.5278 5.83333 15.4167C5.83333 15.3056 5.875 15.2083 5.95833 15.125C6.04167 15.0417 6.13889 15 6.25 15C6.36111 15 6.45833 15.0417 6.54167 15.125C6.625 15.2083 6.66667 15.3056 6.66667 15.4167C6.66667 15.5278 6.625 15.625 6.54167 15.7083C6.45833 15.7917 6.36111 15.8333 6.25 15.8333ZM6.25 0.833333C6.13889 0.833333 6.04167 0.791667 5.95833 0.708333C5.875 0.625 5.83333 0.527778 5.83333 0.416667C5.83333 0.305556 5.875 0.208333 5.95833 0.125C6.04167 0.0416667 6.13889 0 6.25 0C6.36111 0 6.45833 0.0416667 6.54167 0.125C6.625 0.208333 6.66667 0.305556 6.66667 0.416667C6.66667 0.527778 6.625 0.625 6.54167 0.708333C6.45833 0.791667 6.36111 0.833333 6.25 0.833333ZM9.58333 10.8333C9.23611 10.8333 8.94097 10.7118 8.69792 10.4688C8.45486 10.2257 8.33333 9.93056 8.33333 9.58333C8.33333 9.23611 8.45486 8.94097 8.69792 8.69792C8.94097 8.45486 9.23611 8.33333 9.58333 8.33333C9.93056 8.33333 10.2257 8.45486 10.4688 8.69792C10.7118 8.94097 10.8333 9.23611 10.8333 9.58333C10.8333 9.93056 10.7118 10.2257 10.4688 10.4688C10.2257 10.7118 9.93056 10.8333 9.58333 10.8333ZM9.58333 7.5C9.23611 7.5 8.94097 7.37847 8.69792 7.13542C8.45486 6.89236 8.33333 6.59722 8.33333 6.25C8.33333 5.90278 8.45486 5.60764 8.69792 5.36458C8.94097 5.12153 9.23611 5 9.58333 5C9.93056 5 10.2257 5.12153 10.4688 5.36458C10.7118 5.60764 10.8333 5.90278 10.8333 6.25C10.8333 6.59722 10.7118 6.89236 10.4688 7.13542C10.2257 7.37847 9.93056 7.5 9.58333 7.5ZM9.58333 13.75C9.34722 13.75 9.14931 13.6701 8.98958 13.5104C8.82986 13.3507 8.75 13.1528 8.75 12.9167C8.75 12.6806 8.82986 12.4826 8.98958 12.3229C9.14931 12.1632 9.34722 12.0833 9.58333 12.0833C9.81944 12.0833 10.0174 12.1632 10.1771 12.3229C10.3368 12.4826 10.4167 12.6806 10.4167 12.9167C10.4167 13.1528 10.3368 13.3507 10.1771 13.5104C10.0174 13.6701 9.81944 13.75 9.58333 13.75ZM9.58333 3.75C9.34722 3.75 9.14931 3.67014 8.98958 3.51042C8.82986 3.35069 8.75 3.15278 8.75 2.91667C8.75 2.68056 8.82986 2.48264 8.98958 2.32292C9.14931 2.16319 9.34722 2.08333 9.58333 2.08333C9.81944 2.08333 10.0174 2.16319 10.1771 2.32292C10.3368 2.48264 10.4167 2.68056 10.4167 2.91667C10.4167 3.15278 10.3368 3.35069 10.1771 3.51042C10.0174 3.67014 9.81944 3.75 9.58333 3.75ZM9.58333 15.8333C9.47222 15.8333 9.375 15.7917 9.29167 15.7083C9.20833 15.625 9.16667 15.5278 9.16667 15.4167C9.16667 15.3056 9.20833 15.2083 9.29167 15.125C9.375 15.0417 9.47222 15 9.58333 15C9.69444 15 9.79167 15.0417 9.875 15.125C9.95833 15.2083 10 15.3056 10 15.4167C10 15.5278 9.95833 15.625 9.875 15.7083C9.79167 15.7917 9.69444 15.8333 9.58333 15.8333ZM9.58333 0.833333C9.47222 0.833333 9.375 0.791667 9.29167 0.708333C9.20833 0.625 9.16667 0.527778 9.16667 0.416667C9.16667 0.305556 9.20833 0.208333 9.29167 0.125C9.375 0.0416667 9.47222 0 9.58333 0C9.69444 0 9.79167 0.0416667 9.875 0.125C9.95833 0.208333 10 0.305556 10 0.416667C10 0.527778 9.95833 0.625 9.875 0.708333C9.79167 0.791667 9.69444 0.833333 9.58333 0.833333ZM12.9167 13.75C12.6806 13.75 12.4826 13.6701 12.3229 13.5104C12.1632 13.3507 12.0833 13.1528 12.0833 12.9167C12.0833 12.6806 12.1632 12.4826 12.3229 12.3229C12.4826 12.1632 12.6806 12.0833 12.9167 12.0833C13.1528 12.0833 13.3507 12.1632 13.5104 12.3229C13.6701 12.4826 13.75 12.6806 13.75 12.9167C13.75 13.1528 13.6701 13.3507 13.5104 13.5104C13.3507 13.6701 13.1528 13.75 12.9167 13.75ZM12.9167 10.4167C12.6806 10.4167 12.4826 10.3368 12.3229 10.1771C12.1632 10.0174 12.0833 9.81944 12.0833 9.58333C12.0833 9.34722 12.1632 9.14931 12.3229 8.98958C12.4826 8.82986 12.6806 8.75 12.9167 8.75C13.1528 8.75 13.3507 8.82986 13.5104 8.98958C13.6701 9.14931 13.75 9.34722 13.75 9.58333C13.75 9.81944 13.6701 10.0174 13.5104 10.1771C13.3507 10.3368 13.1528 10.4167 12.9167 10.4167ZM12.9167 7.08333C12.6806 7.08333 12.4826 7.00347 12.3229 6.84375C12.1632 6.68403 12.0833 6.48611 12.0833 6.25C12.0833 6.01389 12.1632 5.81597 12.3229 5.65625C12.4826 5.49653 12.6806 5.41667 12.9167 5.41667C13.1528 5.41667 13.3507 5.49653 13.5104 5.65625C13.6701 5.81597 13.75 6.01389 13.75 6.25C13.75 6.48611 13.6701 6.68403 13.5104 6.84375C13.3507 7.00347 13.1528 7.08333 12.9167 7.08333ZM12.9167 3.75C12.6806 3.75 12.4826 3.67014 12.3229 3.51042C12.1632 3.35069 12.0833 3.15278 12.0833 2.91667C12.0833 2.68056 12.1632 2.48264 12.3229 2.32292C12.4826 2.16319 12.6806 2.08333 12.9167 2.08333C13.1528 2.08333 13.3507 2.16319 13.5104 2.32292C13.6701 2.48264 13.75 2.68056 13.75 2.91667C13.75 3.15278 13.6701 3.35069 13.5104 3.51042C13.3507 3.67014 13.1528 3.75 12.9167 3.75ZM15.4167 10C15.3056 10 15.2083 9.95833 15.125 9.875C15.0417 9.79167 15 9.69444 15 9.58333C15 9.47222 15.0417 9.375 15.125 9.29167C15.2083 9.20833 15.3056 9.16667 15.4167 9.16667C15.5278 9.16667 15.625 9.20833 15.7083 9.29167C15.7917 9.375 15.8333 9.47222 15.8333 9.58333C15.8333 9.69444 15.7917 9.79167 15.7083 9.875C15.625 9.95833 15.5278 10 15.4167 10ZM15.4167 6.66667C15.3056 6.66667 15.2083 6.625 15.125 6.54167C15.0417 6.45833 15 6.36111 15 6.25C15 6.13889 15.0417 6.04167 15.125 5.95833C15.2083 5.875 15.3056 5.83333 15.4167 5.83333C15.5278 5.83333 15.625 5.875 15.7083 5.95833C15.7917 6.04167 15.8333 6.13889 15.8333 6.25C15.8333 6.36111 15.7917 6.45833 15.7083 6.54167C15.625 6.625 15.5278 6.66667 15.4167 6.66667Z" fill="#237329"/>
</svg>
