<svg width="17" height="16" viewBox="0 0 17 16" fill="none" xmlns="http://www.w3.org/2000/svg">
<path d="M13.3272 8.94493C12.5885 8.94493 11.9927 9.05892 11.5121 9.25368C11.1752 9.00532 10.7069 8.64147 10.1652 8.1742C10.4898 7.83602 10.8197 7.47443 11.1481 7.08945C13.5552 4.27225 14.6756 1.67548 14.7228 1.56678C14.9685 0.990053 14.6895 0.328782 14.0992 0.0879771C13.5096 -0.152828 12.8304 0.119682 12.5831 0.694897C12.5723 0.718298 11.5376 3.09918 9.36854 5.63933C9.07955 5.97752 8.78823 6.29758 8.50077 6.59727C8.21332 6.29758 7.922 5.97827 7.633 5.63933C5.46318 3.09918 4.42927 0.718298 4.41845 0.694897C4.17118 0.119682 3.4935 -0.153583 2.90236 0.0879771C2.312 0.328782 2.03305 0.990808 2.27877 1.56678C2.32591 1.67624 3.44636 4.27225 5.85341 7.08945C6.18182 7.47443 6.51177 7.83602 6.83632 8.1742C6.29464 8.64147 5.82636 9.00457 5.48945 9.25368C5.00959 9.05892 4.41304 8.94493 3.67432 8.94493C0.6375 8.94493 0 10.8631 0 12.4725C0 14.0819 0.6375 16 3.67432 16C6.71114 16 7.34786 14.0819 7.34786 12.4725C7.34786 11.9584 7.28218 11.4119 7.09441 10.9076C7.47614 10.6192 7.95832 10.2358 8.5 9.76246C9.04091 10.2358 9.52386 10.6192 9.90559 10.9076C9.71782 11.4126 9.65214 11.9584 9.65214 12.4725C9.65214 14.0819 10.2896 16 13.3257 16C16.3617 16 17 14.0819 17 12.4725C17 10.8631 16.3625 8.94493 13.3257 8.94493H13.3272ZM3.67586 13.7354C2.54768 13.7354 2.31973 13.5233 2.31973 12.4725C2.31973 11.4217 2.54768 11.2096 3.67586 11.2096C4.80405 11.2096 5.03123 11.4217 5.03123 12.4725C5.03123 13.5233 4.80327 13.7354 3.67586 13.7354ZM13.3272 13.7354C12.1998 13.7354 11.9719 13.5233 11.9719 12.4725C11.9719 11.4217 12.1998 11.2096 13.3272 11.2096C14.4546 11.2096 14.6834 11.4217 14.6834 12.4725C14.6834 13.5233 14.4554 13.7354 13.3272 13.7354Z" fill="#237329"/>
</svg>
