<svg width="28" height="27" viewBox="0 0 28 27" fill="none" xmlns="http://www.w3.org/2000/svg">
<path d="M2.1 27C1.625 26.9 1.18125 26.6438 0.76875 26.2313C0.35625 25.8188 0.1 25.375 0 24.9L24.9 0C25.425 0.125 25.875 0.38125 26.25 0.76875C26.625 1.15625 26.8875 1.6 27.0375 2.1L2.1 27ZM0 17.55V13.35L13.35 0H17.55L0 17.55ZM0 6V3C0 2.175 0.29375 1.46875 0.88125 0.88125C1.46875 0.29375 2.175 0 3 0H6L0 6ZM21 27L27 21V24C27 24.825 26.7062 25.5312 26.1187 26.1187C25.5312 26.7062 24.825 27 24 27H21ZM9.45 27L27 9.45V13.65L13.65 27H9.45Z" fill="#405E43"/>
</svg>
