<svg width="24" height="24" viewBox="0 0 24 24" fill="none" xmlns="http://www.w3.org/2000/svg">
<path d="M7.61 2.14789L7.80042 2.10884C8.28808 2.00883 8.53191 1.95883 8.6895 2.042C8.84709 2.12518 8.97976 2.43747 9.24511 3.06206C9.72042 4.18084 10.8245 4.96671 12 4.96671C13.1755 4.96671 14.2796 4.18084 14.7549 3.06206C15.0202 2.43747 15.1529 2.12518 15.3105 2.042C15.4681 1.95883 15.7119 2.00883 16.1996 2.10884L16.39 2.14789C17.6491 2.37801 17.6688 2.38948 18.5326 3.39283C19.2624 4.24059 20.3084 5.10687 20.8298 6.12719C21.2138 6.87863 20.8865 7.52287 20.4556 8.11986C19.9173 8.86553 19.2184 9.5817 18.272 9.0015C17.6678 8.63102 17.1859 7.84915 16.7173 7.30823C16.7173 7.30823 17 10.9246 16 11.9314C16.9077 12.5863 18.3424 13.8579 19.4805 16.4642C19.8862 17.3933 20.4317 18.4519 19.8937 19.4437C18.0646 22.8154 5.97514 22.8887 4.10625 19.4437C3.56824 18.4519 4.11378 17.3933 4.51948 16.4642C5.65756 13.8579 7.0923 12.5863 8 11.9314C7 10.9246 7.2827 7.30823 7.2827 7.30823C6.81411 7.84915 6.33223 8.63102 5.72796 9.0015C4.78163 9.5817 4.08274 8.86553 3.54444 8.11986C3.11346 7.52287 2.78615 6.87863 3.17016 6.12719C3.69156 5.10687 4.73757 4.24059 5.46741 3.39283C6.33123 2.38946 6.35093 2.37801 7.61 2.14789Z" stroke="#141B34" stroke-width="1.5" stroke-linecap="round" stroke-linejoin="round"/>
<path d="M8 12H16" stroke="#141B34" stroke-width="1.5" stroke-linecap="round" stroke-linejoin="round"/>
</svg>
