<svg width="288" height="61" viewBox="0 0 288 61" fill="none" xmlns="http://www.w3.org/2000/svg">
<path d="M3.168 51V15.24H10.608V44.52H25.728V51H3.168ZM37.002 51.576C35.114 51.576 33.482 51.272 32.106 50.664C30.73 50.056 29.674 49.192 28.938 48.072C28.202 46.92 27.834 45.56 27.834 43.992C27.834 42.52 28.17 41.224 28.842 40.104C29.514 38.952 30.538 37.992 31.914 37.224C33.322 36.456 35.066 35.912 37.146 35.592L45.162 34.296V39.576L38.442 40.776C37.418 40.968 36.634 41.304 36.09 41.784C35.546 42.232 35.274 42.888 35.274 43.752C35.274 44.552 35.578 45.176 36.186 45.624C36.794 46.072 37.546 46.296 38.442 46.296C39.626 46.296 40.666 46.04 41.562 45.528C42.458 45.016 43.146 44.328 43.626 43.464C44.138 42.568 44.394 41.592 44.394 40.536V33.72C44.394 32.728 43.994 31.896 43.194 31.224C42.426 30.552 41.37 30.216 40.026 30.216C38.746 30.216 37.61 30.568 36.618 31.272C35.658 31.976 34.954 32.904 34.506 34.056L28.746 31.32C29.258 29.848 30.074 28.584 31.194 27.528C32.314 26.472 33.658 25.656 35.226 25.08C36.794 24.504 38.506 24.216 40.362 24.216C42.57 24.216 44.522 24.616 46.218 25.416C47.914 26.216 49.226 27.336 50.154 28.776C51.114 30.184 51.594 31.832 51.594 33.72V51H44.874V46.776L46.506 46.488C45.738 47.64 44.89 48.6 43.962 49.368C43.034 50.104 41.994 50.648 40.842 51C39.69 51.384 38.41 51.576 37.002 51.576ZM66.0274 51V15.24H90.5074V21.72H73.4674V30.792H88.1074V37.272H73.4674V51H66.0274ZM100.799 51.576C98.9109 51.576 97.2789 51.272 95.9029 50.664C94.5269 50.056 93.4709 49.192 92.7349 48.072C91.9989 46.92 91.6309 45.56 91.6309 43.992C91.6309 42.52 91.9669 41.224 92.6389 40.104C93.3109 38.952 94.3349 37.992 95.7109 37.224C97.1189 36.456 98.8629 35.912 100.943 35.592L108.959 34.296V39.576L102.239 40.776C101.215 40.968 100.431 41.304 99.8869 41.784C99.3429 42.232 99.0709 42.888 99.0709 43.752C99.0709 44.552 99.3749 45.176 99.9829 45.624C100.591 46.072 101.343 46.296 102.239 46.296C103.423 46.296 104.463 46.04 105.359 45.528C106.255 45.016 106.943 44.328 107.423 43.464C107.935 42.568 108.191 41.592 108.191 40.536V33.72C108.191 32.728 107.791 31.896 106.991 31.224C106.223 30.552 105.167 30.216 103.823 30.216C102.543 30.216 101.407 30.568 100.415 31.272C99.4549 31.976 98.7509 32.904 98.3029 34.056L92.5429 31.32C93.0549 29.848 93.8709 28.584 94.9909 27.528C96.1109 26.472 97.4549 25.656 99.0229 25.08C100.591 24.504 102.303 24.216 104.159 24.216C106.367 24.216 108.319 24.616 110.015 25.416C111.711 26.216 113.023 27.336 113.951 28.776C114.911 30.184 115.391 31.832 115.391 33.72V51H108.671V46.776L110.303 46.488C109.535 47.64 108.687 48.6 107.759 49.368C106.831 50.104 105.791 50.648 104.639 51C103.487 51.384 102.207 51.576 100.799 51.576ZM135.359 51.576C133.567 51.576 131.903 51.256 130.367 50.616C128.863 49.944 127.647 48.968 126.719 47.688L127.391 46.2V51H120.671V14.664H127.871V29.784L126.767 28.344C127.631 27.032 128.799 26.024 130.271 25.32C131.775 24.584 133.487 24.216 135.407 24.216C137.903 24.216 140.159 24.824 142.175 26.04C144.191 27.256 145.791 28.904 146.975 30.984C148.159 33.032 148.751 35.336 148.751 37.896C148.751 40.424 148.159 42.728 146.975 44.808C145.823 46.888 144.239 48.536 142.223 49.752C140.207 50.968 137.919 51.576 135.359 51.576ZM134.495 45.096C135.839 45.096 137.023 44.792 138.047 44.184C139.071 43.576 139.871 42.728 140.447 41.64C141.023 40.552 141.311 39.304 141.311 37.896C141.311 36.488 141.023 35.256 140.447 34.2C139.871 33.112 139.071 32.264 138.047 31.656C137.023 31.016 135.839 30.696 134.495 30.696C133.215 30.696 132.063 31 131.039 31.608C130.047 32.216 129.263 33.064 128.687 34.152C128.143 35.24 127.871 36.488 127.871 37.896C127.871 39.304 128.143 40.552 128.687 41.64C129.263 42.728 130.047 43.576 131.039 44.184C132.063 44.792 133.215 45.096 134.495 45.096ZM152.968 51V24.792H159.688V31.08L159.208 30.168C159.784 27.96 160.728 26.472 162.04 25.704C163.384 24.904 164.968 24.504 166.792 24.504H168.328V30.744H166.072C164.312 30.744 162.888 31.288 161.8 32.376C160.712 33.432 160.168 34.936 160.168 36.888V51H152.968Z" fill="#163718"/>
<path d="M205.436 29.9285C207.177 33.5243 205.375 37.9355 201.411 39.186C197.943 40.2792 194.364 38.3018 193.099 34.8951C192.401 33.0146 192.319 31.0242 192.225 28.7681C192.075 25.1635 191.907 21.0793 189.253 15.598C188.772 14.6513 188.085 13.5545 187.826 13.3235C187.144 12.7165 187.071 11.6647 187.675 10.9766C188.252 10.3141 189.233 10.2328 189.923 10.7625C190.512 9.43783 190.662 9.05869 190.698 8.95421C191.19 7.54199 190.441 5.99495 189.028 5.50519C187.663 5.03092 186.052 5.80752 185.576 7.17678C185.485 7.43908 185.244 8.34322 184.887 9.74375C184.409 11.6205 184.635 13.6261 185.52 15.3497C188.696 21.5305 188.653 21.6252 188.288 22.4177C183.121 33.5629 174.719 51.8062 174.718 51.807C174.362 52.5839 173.47 52.9655 172.661 52.6828C171.854 52.4025 171.349 51.5432 171.546 50.7137C172.371 47.2509 178.337 22.2184 181.097 11.1871C178.936 11.246 174.213 11.797 167.682 14.9596C163.459 17.0047 159.099 20.8744 159.055 20.914C158.366 21.5326 157.319 21.4665 156.707 20.783C156.095 20.0957 156.154 19.0449 156.839 18.4337C157.031 18.2612 161.584 14.2169 166.233 11.9659C174.236 8.0904 179.84 7.79685 181.942 7.85851C182.18 6.94838 182.353 6.32098 182.433 6.08608C183.843 2.02942 189.723 0.304531 192.846 4.37705C194.245 6.201 194.44 8.67871 193.539 10.7935C193.31 11.3294 192.89 12.2856 192.141 13.9386C195.155 19.9909 195.409 24.9133 195.549 28.628C195.645 30.9444 195.721 32.7746 196.45 34.2798C197.496 36.4393 200.586 36.9563 202.278 34.6432C202.988 33.6728 202.882 32.4115 202.408 31.3078C202.06 30.4967 202.409 29.5455 203.213 29.1561C204.041 28.7551 205.036 29.1018 205.436 29.9285Z" fill="#2E7D32"/>
<ellipse cx="209" cy="38" rx="12" ry="15" fill="white"/>
<path d="M219.464 60.6V46.2L220.616 47.688C219.72 48.968 218.504 49.944 216.968 50.616C215.432 51.256 213.768 51.576 211.976 51.576C209.416 51.576 207.128 50.968 205.112 49.752C203.096 48.536 201.496 46.888 200.312 44.808C199.16 42.728 198.584 40.424 198.584 37.896C198.584 35.336 199.176 33.032 200.36 30.984C201.544 28.904 203.144 27.256 205.16 26.04C207.176 24.824 209.432 24.216 211.928 24.216C213.848 24.216 215.544 24.584 217.016 25.32C218.52 26.024 219.704 27.032 220.568 28.344L219.944 29.784V24.792H226.664V60.6H219.464ZM212.84 45.096C214.152 45.096 215.304 44.792 216.296 44.184C217.288 43.576 218.056 42.728 218.6 41.64C219.176 40.552 219.464 39.304 219.464 37.896C219.464 36.488 219.176 35.24 218.6 34.152C218.056 33.064 217.288 32.216 216.296 31.608C215.304 31 214.152 30.696 212.84 30.696C211.528 30.696 210.344 31.016 209.288 31.656C208.264 32.264 207.464 33.112 206.888 34.2C206.312 35.256 206.024 36.488 206.024 37.896C206.024 39.304 206.312 40.552 206.888 41.64C207.464 42.728 208.264 43.576 209.288 44.184C210.344 44.792 211.528 45.096 212.84 45.096ZM241.345 51.576C239.233 51.576 237.425 51.128 235.921 50.232C234.449 49.304 233.329 48.024 232.561 46.392C231.793 44.76 231.409 42.856 231.409 40.68V24.792H238.609V40.104C238.609 41.096 238.801 41.976 239.185 42.744C239.601 43.48 240.177 44.056 240.913 44.472C241.649 44.888 242.481 45.096 243.409 45.096C244.369 45.096 245.201 44.888 245.905 44.472C246.641 44.056 247.201 43.48 247.585 42.744C248.001 41.976 248.209 41.096 248.209 40.104V24.792H255.409V51H248.689V45.816L249.073 46.968C248.465 48.536 247.473 49.704 246.097 50.472C244.753 51.208 243.169 51.576 241.345 51.576ZM273.295 51.576C270.511 51.576 268.095 50.968 266.047 49.752C263.999 48.504 262.415 46.84 261.295 44.76C260.175 42.68 259.615 40.376 259.615 37.848C259.615 35.224 260.191 32.888 261.343 30.84C262.527 28.792 264.111 27.176 266.095 25.992C268.079 24.808 270.319 24.216 272.815 24.216C274.895 24.216 276.735 24.552 278.335 25.224C279.935 25.864 281.279 26.776 282.367 27.96C283.487 29.144 284.335 30.52 284.911 32.088C285.487 33.624 285.775 35.304 285.775 37.128C285.775 37.64 285.743 38.152 285.679 38.664C285.647 39.144 285.567 39.56 285.439 39.912H265.807V34.632H281.359L277.951 37.128C278.271 35.752 278.255 34.536 277.903 33.48C277.551 32.392 276.927 31.544 276.031 30.936C275.167 30.296 274.095 29.976 272.815 29.976C271.567 29.976 270.495 30.28 269.599 30.888C268.703 31.496 268.031 32.392 267.583 33.576C267.135 34.76 266.959 36.2 267.055 37.896C266.927 39.368 267.103 40.664 267.583 41.784C268.063 42.904 268.799 43.784 269.791 44.424C270.783 45.032 271.983 45.336 273.391 45.336C274.671 45.336 275.759 45.08 276.655 44.568C277.583 44.056 278.303 43.352 278.815 42.456L284.575 45.192C284.063 46.472 283.247 47.592 282.127 48.552C281.039 49.512 279.743 50.264 278.239 50.808C276.735 51.32 275.087 51.576 273.295 51.576Z" fill="#163718"/>
</svg>
