<svg width="24" height="24" viewBox="0 0 24 24" fill="none" xmlns="http://www.w3.org/2000/svg">
<path d="M6 8.99591L7 18.9897L8 20.9884H16L17 18.9897L18 8.99591" stroke="#141B34" stroke-width="1.5"/>
<path d="M8.5 3.50037C8.5 3.50037 8.5 7.99951 12 8.99932M12 8.99932V20.997M12 8.99932C15.5 7.99951 15.5 3.50037 15.5 3.50037" stroke="#141B34" stroke-width="1.5" stroke-linecap="round" stroke-linejoin="round"/>
<path d="M17.3028 16.3222L19.0023 20.9829H21.9841C21.9899 20.9829 21.9945 20.978 21.9941 20.9723L21.0106 5.99894L15.0213 2.99476C14.3804 3.75466 12.9988 4.22008 11.9372 4.20764C11.0262 4.19697 9.76098 3.84759 9.01332 2.99414L3.00539 6.00755L1.99416 20.9723C1.99377 20.978 1.99835 20.9829 2.00414 20.9829H5.00807L6.80182 16.052" stroke="#141B34" stroke-width="1.5"/>
</svg>
