<svg width="21" height="20" viewBox="0 0 21 20" fill="none" xmlns="http://www.w3.org/2000/svg">
<path d="M21 5.5294C21 3.61182 19.9316 1.87424 18.2131 0.995875C16.9207 0.335014 15.5601 0 14.1663 0H6.83375C5.44075 0 4.07925 0.335014 2.78688 0.995875C1.06837 1.87424 0 3.61182 0 5.5294V10.0196H3.5V20H17.5V9.99958H21V5.5294ZM13.0384 1.6659C12.6403 2.66261 11.6445 3.33264 10.5 3.33264C9.3555 3.33264 8.35975 2.66261 7.96163 1.6659H13.0384ZM19.25 8.33285H17.5V5.83274H15.75V18.3333H5.25V5.83274H3.5V8.35285H1.75V5.5294C1.75 4.22684 2.46487 3.05179 3.61462 2.46344C4.43625 2.04342 5.2885 1.78841 6.1565 1.7009L6.14775 1.70257C6.622 3.64349 8.41138 4.99937 10.5 4.99937C12.5886 4.99937 14.378 3.64349 14.8523 1.70257L14.8435 1.7009C15.7106 1.78841 16.5629 2.04342 17.3854 2.46344C18.5351 3.05179 19.25 4.22684 19.25 5.5294V8.33285Z" fill="#237329"/>
</svg>
