<svg width="17" height="20" viewBox="0 0 17 20" fill="none" xmlns="http://www.w3.org/2000/svg">
<path d="M3.47917 1.16667L4.66667 0L11.8125 7.14583C12.1319 7.46528 12.2917 7.86111 12.2917 8.33333C12.2917 8.80556 12.1319 9.20139 11.8125 9.52083L7.85417 13.4792C7.53472 13.7986 7.13889 13.9583 6.66667 13.9583C6.19444 13.9583 5.79861 13.7986 5.47917 13.4792L1.52083 9.52083C1.20139 9.20139 1.04167 8.80556 1.04167 8.33333C1.04167 7.86111 1.20139 7.46528 1.52083 7.14583L5.47917 3.16667L3.47917 1.16667ZM6.66667 4.35417L2.6875 8.33333H10.6458L6.66667 4.35417ZM14.1667 14.1667C13.7083 14.1667 13.316 14.0035 12.9896 13.6771C12.6632 13.3507 12.5 12.9583 12.5 12.5C12.5 12.2083 12.5868 11.8958 12.7604 11.5625C12.934 11.2292 13.125 10.9167 13.3333 10.625C13.4583 10.4583 13.5903 10.2847 13.7292 10.1042C13.8681 9.92361 14.0139 9.75 14.1667 9.58333C14.3194 9.75 14.4653 9.92361 14.6042 10.1042C14.7431 10.2847 14.875 10.4583 15 10.625C15.2083 10.9167 15.3993 11.2292 15.5729 11.5625C15.7465 11.8958 15.8333 12.2083 15.8333 12.5C15.8333 12.9583 15.6701 13.3507 15.3438 13.6771C15.0174 14.0035 14.625 14.1667 14.1667 14.1667ZM0 20V16.6667H16.6667V20H0Z" fill="#383832"/>
</svg>
